<?xml version="1.0" encoding="UTF-8"?>
<svg xmlns="http://www.w3.org/2000/svg" viewBox="0 0 396 396">
  <defs>
    <style>
      .cls-1 {
        stroke: #231f20;
      }

      .cls-1, .cls-2, .cls-3, .cls-4 {
        stroke-miterlimit: 10;
      }

      .cls-1, .cls-3 {
        stroke-width: 2.61px;
      }

      .cls-5 {
        stroke: #123154;
        stroke-linecap: round;
        stroke-linejoin: round;
        stroke-width: 7.81px;
      }

      .cls-5, .cls-6 {
        fill: #123154;
      }

      .cls-2 {
        fill: #e8a3af;
        stroke: #2b2b2b;
        stroke-width: 3.25px;
      }

      .cls-7 {
        fill: #2d100f;
      }

      .cls-8 {
        opacity: .35;
      }

      .cls-3 {
        fill: #fff;
        stroke: #40403f;
      }

      .cls-9 {
        fill: #f9c1d3;
      }

      .cls-10 {
        fill: #5ba2d8;
      }

      .cls-4 {
        fill: none;
        stroke: #000;
        stroke-width: 6.17px;
      }
    </style>
  </defs>
  <g id="body">
    <rect id="big_body" data-name="big body" class="cls-6" width="396" height="396" rx="28.05" ry="28.05"/>
    <rect id="inner_body" data-name="inner body" class="cls-10" x="19.64" y="19.64" width="356.72" height="356.72" rx="25.27" ry="25.27"/>
  </g>
  <g id="s">
    <g class="cls-8">
      <path class="cls-6" d="m241.52,162.95v47.75c-3.6-1.23-6.38-1.84-8.35-1.84-3.77,0-7,1.39-9.7,4.17-2.7,2.78-4.05,6.14-4.05,10.07,0,3.36,1.47,7.61,4.42,12.77l3.81,6.63c6.87,11.95,10.31,23.49,10.31,34.62,0,16.29-5.79,30.08-17.37,41.37-11.58,11.29-25.72,16.94-42.41,16.94-8.02,0-15.96-1.84-23.82-5.52v-48.49c4.75,3.03,8.96,4.54,12.64,4.54,4.34,0,7.96-1.25,10.86-3.74,2.9-2.5,4.36-5.63,4.36-9.39,0-2.46-2.33-7.81-7-16.08-7.45-13.09-11.17-26.19-11.17-39.28,0-15.79,5.63-29.4,16.88-40.82,11.25-11.42,24.69-17.12,40.33-17.12,6.88,0,13.63,1.15,20.26,3.44Z"/>
    </g>
  </g>
  <g id="mouth">
    <g id="MOUTH">
      <path class="cls-7" d="m246.84,276.64c-1.52,16.54-18.37,32.78-48.5,32.78s-44.93-16.5-48.5-32.78c-5.45-24.81,16.28-27.19,48.5-27.32,30.81-.12,50.68,3.66,48.5,27.32Z"/>
      <path class="cls-2" d="m160.89,294.9c47.43,33.98,75.86,0,75.86,0l-2.04-3.66c-14.97-19.95-29.93-7.07-34.76-1.88-.83.89-2.25.67-2.86-.38-12.15-20.9-32.41-2.16-35.13,2.26l-1.07,3.66Z"/>
      <path class="cls-4" d="m246.84,276.64c-1.52,16.54-18.37,32.78-48.5,32.78s-44.93-16.5-48.5-32.78c-5.45-24.81,16.28-27.19,48.5-27.32,30.81-.12,50.68,3.66,48.5,27.32Z"/>
    </g>
  </g>
  <g id="blush">
    <g>
      <g>
        <ellipse class="cls-9" cx="93.71" cy="215.25" rx="31.71" ry="22.25"/>
        <path class="cls-5" d="m106.62,212.4v6.29h-25.83v-6.29h25.83Z"/>
      </g>
      <g>
        <ellipse class="cls-9" cx="302.29" cy="215.25" rx="31.71" ry="22.25"/>
        <path class="cls-5" d="m315.21,212.4v6.29h-25.83v-6.29h25.83Z"/>
      </g>
    </g>
  </g>
  <g id="eye">
    <g id="EYES">
      <g>
        <g>
          <circle class="cls-1" cx="116.23" cy="146.74" r="35.19"/>
          <circle class="cls-3" cx="107.11" cy="137.62" r="15.64"/>
          <circle class="cls-3" cx="135.78" cy="151.3" r="8.47"/>
          <circle class="cls-3" cx="115.58" cy="164.99" r="6.52"/>
        </g>
        <path d="m63.98,84.69c7.22-3.81,14.83-6.32,22.59-8.54,8.26-2.36,16.8-4.06,25.43-3.72,5.59.17,11.13.97,16.5,2.47,1.91.53,6.71,2,8.65,2.59,7.63,2.4,15.22,4.99,22.69,8.1,2.18.91,3.21,3.42,2.3,5.6-.71,1.7-2.39,2.7-4.13,2.63-8.09-.33-16.06-1.2-23.99-2.25-3.31-.45-8.23-1.23-11.48-1.61-6.98-.74-14.03-.5-20.91.79-3.77.72-7.54,1.58-11.34,2.18-7.98,1.26-15.93,2.18-24.09,1.77-2.94-.17-5.18-2.69-5.01-5.63.11-1.91,1.23-3.54,2.8-4.39h0Z"/>
      </g>
      <g>
        <g>
          <circle class="cls-1" cx="279.6" cy="146.74" r="35.19"/>
          <circle class="cls-3" cx="288.72" cy="137.62" r="15.64"/>
          <circle class="cls-3" cx="260.05" cy="151.3" r="8.47"/>
          <circle class="cls-3" cx="280.25" cy="164.99" r="6.52"/>
        </g>
        <path d="m329.81,94.71c-12.01.57-23.76-1.54-35.43-3.96-8.7-1.67-17.72-1.53-26.46-.03-9.87,1.44-19.89,2.68-29.92,3.09-2.36.1-4.36-1.74-4.46-4.1-.08-1.84,1.03-3.45,2.63-4.13,7.47-3.12,15.06-5.7,22.69-8.1,1.97-.61,6.75-2.05,8.65-2.59,5.37-1.49,10.91-2.3,16.5-2.47,8.62-.33,17.17,1.36,25.43,3.72,7.76,2.22,15.37,4.74,22.59,8.54,4.72,2.53,3.08,9.73-2.21,10.02h0Z"/>
      </g>
    </g>
  </g>
</svg>