<?xml version="1.0" encoding="UTF-8"?>
<svg xmlns="http://www.w3.org/2000/svg" viewBox="0 0 1283 398.57">
  <defs>
    <style>
      .cls-1 {
        stroke-width: 15.98px;
      }

      .cls-1, .cls-2, .cls-3, .cls-4, .cls-5 {
        stroke-miterlimit: 10;
      }

      .cls-1, .cls-3 {
        fill: #fff;
      }

      .cls-1, .cls-3, .cls-4 {
        stroke: #231f20;
      }

      .cls-1, .cls-6 {
        stroke-linecap: round;
      }

      .cls-2 {
        fill: #7d171a;
        stroke-width: 2.98px;
      }

      .cls-2, .cls-5 {
        stroke: #000;
      }

      .cls-7, .cls-6 {
        fill: #70171f;
      }

      .cls-8 {
        fill: #200c0c;
      }

      .cls-9 {
        opacity: .35;
      }

      .cls-10 {
        fill: #d6434b;
      }

      .cls-3 {
        stroke-width: 2.14px;
      }

      .cls-11 {
        fill: #9b1c1f;
      }

      .cls-6 {
        stroke: #70171f;
        stroke-linejoin: round;
        stroke-width: 3.97px;
      }

      .cls-4 {
        fill: #321112;
        stroke-width: 5.02px;
      }

      .cls-12 {
        fill: #ffde8d;
      }

      .cls-5 {
        fill: none;
        stroke-width: 6.73px;
      }
    </style>
  </defs>
  <g id="body">
    <g id="body-2" data-name="body">
      <rect id="big_body" data-name="big body" class="cls-7" width="396" height="396" rx="28.05" ry="28.05"/>
      <rect id="inner_body" data-name="inner body" class="cls-10" x="19.64" y="19.64" width="356.72" height="356.72" rx="25.27" ry="25.27"/>
    </g>
  </g>
  <g id="north">
    <g class="cls-9">
      <path class="cls-11" d="m137.36,335.71v-108.77c0-19.07,5.71-34.33,17.12-45.79,11.42-11.46,26.62-17.19,45.6-17.19s33.37,5.57,43.4,16.7c10.02,11.13,15.04,27.13,15.04,48v107.05h-49.84v-107.05c0-10.23-3.64-15.34-10.92-15.34s-10.56,5.12-10.56,15.34v107.05h-49.84Z"/>
    </g>
  </g>
  <g id="mouth">
    <g id="MOUTH">
      <path class="cls-8" d="m241.67,261.07l-91.86,11.03c3.04,25.37,26.08,43.46,51.44,40.42,25.37-3.04,43.46-26.08,40.42-51.44Z"/>
      <ellipse class="cls-2" cx="199.59" cy="298.74" rx="27.76" ry="13.88" transform="translate(-34.18 25.91) rotate(-6.84)"/>
      <path class="cls-5" d="m241.67,261.07l-91.86,11.03c3.04,25.37,26.08,43.46,51.44,40.42,25.37-3.04,43.46-26.08,40.42-51.44Z"/>
    </g>
  </g>
  <g id="blush">
    <g>
      <g>
        <rect class="cls-12" x="54.88" y="204.15" width="61.37" height="38.33" rx="12.68" ry="12.68"/>
        <path class="cls-6" d="m87.09,211.91v11.24h10.81v2.87h-10.81v11.34h-3.06v-11.34h-10.81v-2.87h10.81v-11.24h3.06Z"/>
      </g>
      <g>
        <rect class="cls-12" x="279.75" y="204.15" width="61.37" height="38.33" rx="12.68" ry="12.68"/>
        <path class="cls-6" d="m311.97,211.91v11.24h10.81v2.87h-10.81v11.34h-3.06v-11.34h-10.81v-2.87h10.81v-11.24h3.06Z"/>
      </g>
    </g>
  </g>
  <g id="eye">
    <g id="eyes">
      <g>
        <line class="cls-1" x1="91.36" y1="74.21" x2="179.83" y2="120.12"/>
        <path class="cls-4" d="m168.16,147.18l-93.82-29.7h0c-1.79,5.01-3.52,9.88-3.52,15.47,0,27.15,22.97,49.16,51.3,49.16,23.45,0,39.92-14.34,46.05-34.93h0Z"/>
        <circle class="cls-3" cx="126.39" cy="156.46" r="19.24"/>
        <path class="cls-3" d="m111.43,128.6c-1.27,5.83-6.46,10.2-12.68,10.2-7.16,0-12.97-5.81-12.97-12.97,0-1.62.3-3.17.84-4.6"/>
      </g>
      <g>
        <line class="cls-1" x1="304.64" y1="74.21" x2="216.17" y2="120.12"/>
        <path class="cls-4" d="m227.84,147.18l93.82-29.7h0c1.79,5.01,3.52,9.88,3.52,15.47,0,27.15-22.97,49.16-51.3,49.16-23.45,0-39.92-14.34-46.05-34.93h0Z"/>
        <circle class="cls-3" cx="269.61" cy="156.46" r="19.24"/>
        <path class="cls-3" d="m284.57,128.6c1.27,5.83,6.46,10.2,12.68,10.2,7.16,0,12.97-5.81,12.97-12.97,0-1.62-.3-3.17-.84-4.6"/>
      </g>
    </g>
  </g>
</svg>